<mxfile host="Electron" modified="2023-09-07T18:40:33.125Z" agent="Mozilla/5.0 (Windows NT 10.0; Win64; x64) AppleWebKit/537.36 (KHTML, like Gecko) draw.io/21.6.8 Chrome/114.0.5735.289 Electron/25.5.0 Safari/537.36" etag="2v3fRemkatt2mPJynJmF" version="21.6.8" type="device">
  <diagram name="Page-1" id="id1tKpbR4q4i-vI4RrNP">
    <mxGraphModel dx="1687" dy="984" grid="1" gridSize="10" guides="1" tooltips="1" connect="1" arrows="1" fold="1" page="1" pageScale="1" pageWidth="1600" pageHeight="900" math="0" shadow="0">
      <root>
        <mxCell id="0" />
        <mxCell id="1" parent="0" />
        <mxCell id="MYsKrew8Xh0YFfBF5v4h-8" style="edgeStyle=orthogonalEdgeStyle;rounded=0;orthogonalLoop=1;jettySize=auto;html=1;dashed=1;endArrow=none;endFill=0;" edge="1" parent="1" source="MYsKrew8Xh0YFfBF5v4h-1">
          <mxGeometry relative="1" as="geometry">
            <mxPoint x="135" y="800" as="targetPoint" />
          </mxGeometry>
        </mxCell>
        <mxCell id="MYsKrew8Xh0YFfBF5v4h-1" value="User" style="shape=umlActor;verticalLabelPosition=bottom;verticalAlign=top;html=1;outlineConnect=0;" vertex="1" parent="1">
          <mxGeometry x="120" y="80" width="30" height="60" as="geometry" />
        </mxCell>
        <mxCell id="MYsKrew8Xh0YFfBF5v4h-9" style="edgeStyle=orthogonalEdgeStyle;rounded=0;orthogonalLoop=1;jettySize=auto;html=1;dashed=1;endArrow=none;endFill=0;" edge="1" parent="1" source="MYsKrew8Xh0YFfBF5v4h-2">
          <mxGeometry relative="1" as="geometry">
            <mxPoint x="340" y="800" as="targetPoint" />
          </mxGeometry>
        </mxCell>
        <mxCell id="MYsKrew8Xh0YFfBF5v4h-2" value="Authentication System" style="rounded=0;whiteSpace=wrap;html=1;" vertex="1" parent="1">
          <mxGeometry x="280" y="80" width="120" height="40" as="geometry" />
        </mxCell>
        <mxCell id="MYsKrew8Xh0YFfBF5v4h-10" style="edgeStyle=orthogonalEdgeStyle;rounded=0;orthogonalLoop=1;jettySize=auto;html=1;dashed=1;endArrow=none;endFill=0;" edge="1" parent="1" source="MYsKrew8Xh0YFfBF5v4h-3">
          <mxGeometry relative="1" as="geometry">
            <mxPoint x="580" y="800" as="targetPoint" />
          </mxGeometry>
        </mxCell>
        <mxCell id="MYsKrew8Xh0YFfBF5v4h-3" value="Database" style="rounded=0;whiteSpace=wrap;html=1;" vertex="1" parent="1">
          <mxGeometry x="520" y="80" width="120" height="40" as="geometry" />
        </mxCell>
        <mxCell id="MYsKrew8Xh0YFfBF5v4h-4" value="" style="endArrow=classic;html=1;rounded=0;" edge="1" parent="1">
          <mxGeometry width="50" height="50" relative="1" as="geometry">
            <mxPoint x="135" y="200" as="sourcePoint" />
            <mxPoint x="340" y="200" as="targetPoint" />
          </mxGeometry>
        </mxCell>
        <mxCell id="MYsKrew8Xh0YFfBF5v4h-5" value="Request Password Change" style="text;html=1;strokeColor=none;fillColor=none;align=center;verticalAlign=middle;whiteSpace=wrap;rounded=0;" vertex="1" parent="1">
          <mxGeometry x="170" y="170" width="110" height="30" as="geometry" />
        </mxCell>
        <mxCell id="MYsKrew8Xh0YFfBF5v4h-6" value="" style="endArrow=classic;html=1;rounded=0;" edge="1" parent="1">
          <mxGeometry width="50" height="50" relative="1" as="geometry">
            <mxPoint x="340" y="352" as="sourcePoint" />
            <mxPoint x="580" y="352" as="targetPoint" />
          </mxGeometry>
        </mxCell>
        <mxCell id="MYsKrew8Xh0YFfBF5v4h-7" value="Check details" style="text;html=1;strokeColor=none;fillColor=none;align=center;verticalAlign=middle;whiteSpace=wrap;rounded=0;" vertex="1" parent="1">
          <mxGeometry x="400" y="320" width="120" height="30" as="geometry" />
        </mxCell>
        <mxCell id="MYsKrew8Xh0YFfBF5v4h-11" value="" style="endArrow=none;html=1;rounded=0;startArrow=blockThin;startFill=1;endFill=0;" edge="1" parent="1">
          <mxGeometry width="50" height="50" relative="1" as="geometry">
            <mxPoint x="135" y="249" as="sourcePoint" />
            <mxPoint x="340" y="249" as="targetPoint" />
          </mxGeometry>
        </mxCell>
        <mxCell id="MYsKrew8Xh0YFfBF5v4h-12" value="Request Current Password" style="text;html=1;strokeColor=none;fillColor=none;align=center;verticalAlign=middle;whiteSpace=wrap;rounded=0;" vertex="1" parent="1">
          <mxGeometry x="170" y="219" width="110" height="30" as="geometry" />
        </mxCell>
        <mxCell id="MYsKrew8Xh0YFfBF5v4h-13" value="" style="endArrow=classic;html=1;rounded=0;" edge="1" parent="1">
          <mxGeometry width="50" height="50" relative="1" as="geometry">
            <mxPoint x="135" y="302" as="sourcePoint" />
            <mxPoint x="340" y="302" as="targetPoint" />
          </mxGeometry>
        </mxCell>
        <mxCell id="MYsKrew8Xh0YFfBF5v4h-14" value="Enters Current Password" style="text;html=1;strokeColor=none;fillColor=none;align=center;verticalAlign=middle;whiteSpace=wrap;rounded=0;" vertex="1" parent="1">
          <mxGeometry x="170" y="272" width="110" height="30" as="geometry" />
        </mxCell>
        <mxCell id="MYsKrew8Xh0YFfBF5v4h-15" value="Verification Result:Successful/Failed" style="text;html=1;strokeColor=none;fillColor=none;align=center;verticalAlign=middle;whiteSpace=wrap;rounded=0;" vertex="1" parent="1">
          <mxGeometry x="400" y="360" width="120" height="30" as="geometry" />
        </mxCell>
        <mxCell id="MYsKrew8Xh0YFfBF5v4h-16" value="" style="endArrow=none;html=1;rounded=0;startArrow=blockThin;startFill=1;endFill=0;dashed=1;" edge="1" parent="1">
          <mxGeometry width="50" height="50" relative="1" as="geometry">
            <mxPoint x="340" y="392" as="sourcePoint" />
            <mxPoint x="580" y="392" as="targetPoint" />
          </mxGeometry>
        </mxCell>
        <mxCell id="MYsKrew8Xh0YFfBF5v4h-17" value="" style="endArrow=none;html=1;rounded=0;startArrow=blockThin;startFill=1;endFill=0;" edge="1" parent="1">
          <mxGeometry width="50" height="50" relative="1" as="geometry">
            <mxPoint x="135" y="500" as="sourcePoint" />
            <mxPoint x="340" y="500" as="targetPoint" />
          </mxGeometry>
        </mxCell>
        <mxCell id="MYsKrew8Xh0YFfBF5v4h-18" value="Request New Password" style="text;html=1;strokeColor=none;fillColor=none;align=center;verticalAlign=middle;whiteSpace=wrap;rounded=0;" vertex="1" parent="1">
          <mxGeometry x="170" y="470" width="110" height="30" as="geometry" />
        </mxCell>
        <mxCell id="MYsKrew8Xh0YFfBF5v4h-19" value="Enters New Password" style="text;html=1;strokeColor=none;fillColor=none;align=center;verticalAlign=middle;whiteSpace=wrap;rounded=0;" vertex="1" parent="1">
          <mxGeometry x="170" y="517" width="110" height="30" as="geometry" />
        </mxCell>
        <mxCell id="MYsKrew8Xh0YFfBF5v4h-20" value="" style="endArrow=classic;html=1;rounded=0;" edge="1" parent="1">
          <mxGeometry width="50" height="50" relative="1" as="geometry">
            <mxPoint x="135" y="547" as="sourcePoint" />
            <mxPoint x="340" y="547" as="targetPoint" />
          </mxGeometry>
        </mxCell>
        <mxCell id="MYsKrew8Xh0YFfBF5v4h-21" value="Update Password" style="text;html=1;strokeColor=none;fillColor=none;align=center;verticalAlign=middle;whiteSpace=wrap;rounded=0;" vertex="1" parent="1">
          <mxGeometry x="400" y="537" width="120" height="30" as="geometry" />
        </mxCell>
        <mxCell id="MYsKrew8Xh0YFfBF5v4h-22" value="" style="endArrow=classic;html=1;rounded=0;" edge="1" parent="1">
          <mxGeometry width="50" height="50" relative="1" as="geometry">
            <mxPoint x="340" y="569" as="sourcePoint" />
            <mxPoint x="580" y="569" as="targetPoint" />
          </mxGeometry>
        </mxCell>
        <mxCell id="MYsKrew8Xh0YFfBF5v4h-23" value="Password Updated" style="text;html=1;strokeColor=none;fillColor=none;align=center;verticalAlign=middle;whiteSpace=wrap;rounded=0;" vertex="1" parent="1">
          <mxGeometry x="400" y="579" width="120" height="30" as="geometry" />
        </mxCell>
        <mxCell id="MYsKrew8Xh0YFfBF5v4h-24" value="" style="endArrow=none;html=1;rounded=0;startArrow=blockThin;startFill=1;endFill=0;dashed=1;" edge="1" parent="1">
          <mxGeometry width="50" height="50" relative="1" as="geometry">
            <mxPoint x="340" y="611" as="sourcePoint" />
            <mxPoint x="580" y="611" as="targetPoint" />
          </mxGeometry>
        </mxCell>
        <mxCell id="MYsKrew8Xh0YFfBF5v4h-25" value="" style="endArrow=none;html=1;rounded=0;startArrow=blockThin;startFill=1;endFill=0;" edge="1" parent="1">
          <mxGeometry width="50" height="50" relative="1" as="geometry">
            <mxPoint x="136" y="649" as="sourcePoint" />
            <mxPoint x="341" y="649" as="targetPoint" />
          </mxGeometry>
        </mxCell>
        <mxCell id="MYsKrew8Xh0YFfBF5v4h-26" value="Notify &quot;New Password Set&quot;" style="text;html=1;strokeColor=none;fillColor=none;align=center;verticalAlign=middle;whiteSpace=wrap;rounded=0;" vertex="1" parent="1">
          <mxGeometry x="171" y="619" width="110" height="30" as="geometry" />
        </mxCell>
        <mxCell id="MYsKrew8Xh0YFfBF5v4h-27" value="alt" style="shape=umlFrame;whiteSpace=wrap;html=1;pointerEvents=0;recursiveResize=0;container=1;collapsible=0;width=160;" vertex="1" parent="1">
          <mxGeometry x="120" y="420" width="490" height="350" as="geometry" />
        </mxCell>
        <mxCell id="MYsKrew8Xh0YFfBF5v4h-29" value="Notify &quot;Verification Failed&quot;" style="text;html=1;strokeColor=none;fillColor=none;align=center;verticalAlign=middle;whiteSpace=wrap;rounded=0;" vertex="1" parent="MYsKrew8Xh0YFfBF5v4h-27">
          <mxGeometry x="50" y="285" width="110" height="30" as="geometry" />
        </mxCell>
        <mxCell id="MYsKrew8Xh0YFfBF5v4h-30" value="" style="endArrow=none;html=1;rounded=0;startArrow=blockThin;startFill=1;endFill=0;" edge="1" parent="MYsKrew8Xh0YFfBF5v4h-27">
          <mxGeometry width="50" height="50" relative="1" as="geometry">
            <mxPoint x="15" y="315" as="sourcePoint" />
            <mxPoint x="220" y="315" as="targetPoint" />
          </mxGeometry>
        </mxCell>
        <mxCell id="MYsKrew8Xh0YFfBF5v4h-28" value="" style="endArrow=none;html=1;rounded=0;" edge="1" parent="1">
          <mxGeometry width="50" height="50" relative="1" as="geometry">
            <mxPoint x="120" y="680" as="sourcePoint" />
            <mxPoint x="610" y="680" as="targetPoint" />
          </mxGeometry>
        </mxCell>
        <mxCell id="MYsKrew8Xh0YFfBF5v4h-31" value="" style="endArrow=none;html=1;rounded=0;" edge="1" parent="1">
          <mxGeometry width="50" height="50" relative="1" as="geometry">
            <mxPoint x="110" y="800" as="sourcePoint" />
            <mxPoint x="620" y="800" as="targetPoint" />
          </mxGeometry>
        </mxCell>
      </root>
    </mxGraphModel>
  </diagram>
</mxfile>
